<?xml version="1.0" encoding="UTF-8"?>
<svg xmlns="http://www.w3.org/2000/svg" viewBox="0 0 461.87 364.09">
  <defs>
    <style>
      .cls-1 {
        fill: #92a9a3;
      }

      .cls-2 {
        fill: #adadad;
      }
    </style>
  </defs>
  <g id="Layer_3" data-name="Layer 3">
    <rect class="cls-1" width="461.87" height="364.09"/>
  </g>
  <g id="Layer_2" data-name="Layer 2">
    <g>
      <g>
        <polygon class="cls-2" points="30.03 122.08 44.49 143.56 47.24 145.23 47.96 148.69 50.57 150.14 51.46 153.86 54.02 155.24 54.97 159.05 57.42 160.26 58.51 164.27 61.09 165.68 62.02 169.45 78.2 193.04 77.34 194.96 78.9 196.66 139.51 156.38 140.05 153.59 136.68 152.78 119.29 127.98 117.27 123.81 114.43 122.01 113.75 118.58 110.72 116.52 110.23 113.4 107.27 111.42 106.73 108.22 103.94 106.51 103.26 103.1 88.91 83.1 89.63 79.31 86.85 78.78 27.78 118.76 27.24 121.54 30.03 122.08"/>
        <g>
          <path d="M28.91,123.42c-.19,0-.39-.02-.58-.06-.79-.15-1.47-.6-1.92-1.26-.45-.66-.61-1.46-.46-2.25.15-.79.6-1.47,1.26-1.92l59.07-39.99c.66-.45,1.46-.61,2.25-.46.79.15,1.47.6,1.92,1.26.93,1.37.57,3.24-.8,4.17l-59.07,39.99c-.5.34-1.08.51-1.67.51ZM87.97,79.43c-.2,0-.39.06-.56.17l-59.07,39.99c-.22.15-.37.38-.42.64s0,.53.15.75.38.37.64.42c.27.05.53,0,.75-.15l59.07-39.99c.22-.15.37-.38.42-.64.05-.27,0-.53-.15-.75s-.38-.37-.64-.42c-.07-.01-.13-.02-.2-.02Z"/>
          <path d="M79.33,197.71c-.19,0-.38-.02-.58-.06-.79-.15-1.47-.6-1.92-1.26-.93-1.37-.57-3.24.8-4.17l59.07-39.99c.66-.45,1.46-.61,2.25-.46.79.15,1.47.6,1.92,1.26.45.66.61,1.46.46,2.25-.15.79-.6,1.47-1.26,1.92l-59.07,39.99c-.5.34-1.08.52-1.67.52ZM138.38,153.72c-.2,0-.39.06-.56.17l-59.07,39.99c-.22.15-.37.38-.42.64-.05.27,0,.53.15.75.31.46.94.58,1.39.27l59.07-39.99c.22-.15.37-.38.42-.64.05-.26,0-.53-.15-.75s-.38-.37-.64-.42c-.07-.01-.13-.02-.19-.02Z"/>
          <polygon points="77.37 193.61 61.08 169.86 60.36 166.54 57.62 164.9 56.85 161.36 54.09 159.69 53.29 156.11 50.57 154.5 49.84 151.01 47.07 149.31 46.35 145.85 43.78 144.3 43.66 144.12 29.2 122.64 30.85 121.52 45.19 142.82 48.13 144.6 48.85 148.06 51.62 149.75 52.35 153.23 55.06 154.83 55.85 158.42 58.62 160.09 59.39 163.63 62.13 165.27 62.95 169.05 79.02 192.48 77.37 193.61"/>
          <polygon points="135.85 153.33 120.06 129.71 116.86 127.54 116.35 124.39 113.35 122.36 112.83 119.17 109.79 117.1 109.31 113.99 106.35 112.02 105.81 108.82 102.86 106.87 102.31 103.48 87.86 82.25 89.52 81.13 104.21 102.72 104.7 105.68 107.64 107.63 108.18 110.83 111.15 112.81 111.64 115.94 114.66 118 115.19 121.19 118.19 123.22 118.7 126.37 121.51 128.27 121.62 128.44 137.51 152.22 135.85 153.33"/>
          <rect x="41.18" y="124.75" width="68.66" height="2" transform="translate(-58.02 65.06) rotate(-34.57)"/>
          <rect x="44.67" y="129.9" width="68.66" height="2" transform="translate(-60.33 67.95) rotate(-34.57)"/>
          <rect x="48.12" y="135" width="68.66" height="2" transform="translate(-62.61 70.81) rotate(-34.57)"/>
          <rect x="51.67" y="140.25" width="68.66" height="2" transform="translate(-64.97 73.75) rotate(-34.57)"/>
          <rect x="55.18" y="145.43" width="68.66" height="2" transform="translate(-67.29 76.66) rotate(-34.57)"/>
        </g>
      </g>
      <g>
        <polygon class="cls-2" points="371.25 65.96 354.7 85.88 353.87 88.99 350.75 90.65 350.09 93.57 346.77 95.46 346.17 98.31 342.77 100.29 342.31 102.98 338.77 105.15 338.14 108.02 334.77 109.98 316.68 132.13 314.61 131.85 313.41 133.82 369.1 180.67 371.92 180.41 371.76 176.94 390.67 153.29 394.11 150.18 395.04 146.94 398.13 145.33 399.26 141.84 402.12 140.5 403.18 137.1 406.1 135.68 406.97 132.52 410.05 130.91 425.21 111.52 429.04 111.14 428.78 108.32 373.8 62.87 370.98 63.14 371.25 65.96"/>
        <g>
          <path d="M427.5,112.87c-.67,0-1.35-.23-1.91-.69l-54.97-45.45c-.62-.51-1-1.23-1.07-2.03-.08-.8.16-1.58.67-2.2s1.23-1,2.03-1.07c.79-.08,1.58.16,2.2.67l54.97,45.45c1.28,1.06,1.46,2.95.4,4.23-.59.72-1.45,1.09-2.32,1.09ZM426.86,110.64c.43.35,1.06.29,1.42-.13.35-.43.29-1.06-.13-1.41l-54.97-45.45c-.21-.17-.47-.25-.74-.22-.27.03-.51.15-.68.36-.17.21-.25.47-.22.73.03.27.15.51.36.68l54.97,45.45Z"/>
          <path d="M370.38,182.13c-.67,0-1.35-.23-1.91-.69l-54.97-45.45c-1.28-1.05-1.46-2.95-.4-4.23.51-.62,1.23-1,2.03-1.07.8-.08,1.58.16,2.2.67l54.97,45.45c.62.51,1,1.23,1.08,2.03.08.8-.16,1.58-.67,2.2-.59.72-1.45,1.09-2.32,1.09ZM369.74,179.9c.43.35,1.06.29,1.41-.13.17-.21.25-.47.22-.73-.03-.27-.15-.51-.36-.68l-54.97-45.45c-.21-.17-.46-.26-.74-.22-.27.03-.51.15-.68.36-.17.21-.25.47-.22.74.03.27.15.51.36.68l54.97,45.45Z"/>
          <polygon points="317.45 132.77 315.91 131.5 334.12 109.19 337.1 107.57 337.91 104.48 341.09 102.74 341.92 99.62 345.13 97.85 345.91 94.79 349.06 93.1 349.9 89.97 353.02 88.31 353.79 85.41 370.48 65.32 372.02 66.6 355.61 86.35 354.73 89.67 351.61 91.33 350.76 94.46 347.63 96.14 346.85 99.19 343.63 100.96 342.8 104.08 339.63 105.82 338.81 108.91 335.42 110.76 317.45 132.77"/>
          <polygon points="372.53 177.58 370.99 176.3 389.23 154.51 390.41 150.83 393.29 149.46 394.4 146.01 397.31 144.61 398.44 141.12 401.3 139.78 402.36 136.38 405.27 134.97 406.32 131.59 409.41 130.1 425.72 110.27 427.27 111.54 410.68 131.71 407.97 133.01 406.93 136.39 404.01 137.81 402.94 141.21 400.08 142.56 398.95 146.04 396.04 147.44 394.93 150.89 392.05 152.27 391.01 155.5 390.89 155.65 372.53 177.58"/>
          <rect x="379.51" y="76.32" width="2" height="68.66" transform="translate(54.61 336.08) rotate(-50.89)"/>
          <rect x="375.54" y="81.11" width="2" height="68.66" transform="translate(49.43 334.78) rotate(-50.89)"/>
          <rect x="371.62" y="85.85" width="2" height="68.66" transform="translate(44.3 333.48) rotate(-50.89)"/>
          <rect x="367.58" y="90.74" width="2" height="68.66" transform="translate(39.02 332.15) rotate(-50.89)"/>
          <rect x="363.59" y="95.57" width="2" height="68.66" transform="translate(33.8 330.84) rotate(-50.89)"/>
        </g>
      </g>
      <path d="M256.18,319.39c-5.99,0-12-1.21-17.11-3.99-9.29-5.05-19.11-16.83-13.14-44.28,5.27-24.23,5.14-45.25-.4-62.48-4.55-14.14-12.9-25.28-23.53-31.38-13.05-7.48-27.68-6.62-37.27,2.2-3.6,3.31-6.07,7.89-7.6,13.16,18.91,9.65,30.4,19.56,34.21,29.54,2.42,6.34,1.66,12.66-2.24,18.79-4.72,7.41-9.8,10.83-15.14,10.12-6.86-.9-13.34-8.95-17.32-21.53-3.53-11.15-4.59-24.69-1.83-35.82-21.19-10.61-43.96-17.13-44.36-17.25l.54-1.92c.17.05,17.59,5,36.05,13.26,2.9,1.3,5.67,2.6,8.31,3.91,1.63-5.47,4.25-10.25,8.03-13.73,10.09-9.27,26.01-10.26,39.62-2.46,11.06,6.34,19.73,17.88,24.43,32.5,5.65,17.56,5.8,38.93.46,63.52-5.71,26.24,3.45,37.38,12.14,42.1,13.18,7.16,32.66,3.38,40.64-4.66,12.98-13.08,3.57-51.89-2.66-77.57-2.11-8.71-3.94-16.23-4.47-20.99-1.7-15.03,9.87-28.8,33.47-39.84,17.61-8.24,35.96-12.15,36.15-12.19l.41,1.96c-.72.15-71.93,15.54-68.05,49.84.53,4.64,2.34,12.1,4.43,20.74,6.71,27.67,15.9,65.58,2.14,79.45-5.35,5.4-15.58,9-25.9,9ZM156.6,194.64c-2.52,10.64-1.45,23.59,1.94,34.3,3.69,11.65,9.69,19.37,15.67,20.15,4.42.58,8.99-2.61,13.19-9.21,3.54-5.57,4.24-11.29,2.06-17-4.15-10.87-17.94-20.56-32.87-28.24Z"/>
      <rect x="410.98" y="57.93" width="27.91" height="2" transform="translate(97.99 336.69) rotate(-48.25)"/>
      <rect x="390.02" y="51.68" width="27.91" height="2" transform="translate(311.51 449.44) rotate(-84.31)"/>
      <rect x="435.45" y="67.68" width="2" height="27.91" transform="translate(353.18 517.78) rotate(-89.79)"/>
      <rect x="39.98" y="56.25" width="2" height="27.91" transform="translate(-26.92 25.51) rotate(-26.37)"/>
      <rect x="26.37" y="73.37" width="2" height="27.91" transform="translate(-62.71 71.16) rotate(-62.42)"/>
      <rect x="52.39" y="66.97" width="27.91" height="2" transform="translate(-21.58 103.9) rotate(-67.92)"/>
    </g>
  </g>
</svg>