<?xml version="1.0" encoding="UTF-8"?>
<svg id="Layer_2" data-name="Layer 2" xmlns="http://www.w3.org/2000/svg" viewBox="0 0 628.13 364.09">
  <defs>
    <style>
      .cls-1 {
        fill: #adadad;
      }

      .cls-2 {
        fill: none;
        stroke: #000;
        stroke-miterlimit: 10;
        stroke-width: 3px;
      }
    </style>
  </defs>
  <g>
    <polygon class="cls-1" points="111.39 120.86 125.85 142.34 128.6 144.01 129.32 147.46 131.93 148.92 132.82 152.64 135.38 154.02 136.33 157.83 138.78 159.04 139.87 163.05 142.45 164.46 143.38 168.23 159.56 191.82 158.7 193.74 160.26 195.44 220.87 155.16 221.41 152.37 218.04 151.56 200.65 126.76 198.63 122.59 195.79 120.78 195.11 117.36 192.08 115.3 191.59 112.18 188.63 110.2 188.09 107 185.3 105.29 184.62 101.88 170.27 81.88 170.99 78.09 168.21 77.56 109.14 117.54 108.6 120.32 111.39 120.86"/>
    <g>
      <rect class="cls-2" x="102.13" y="97.2" width="75.34" height="4.01" rx="2" ry="2" transform="translate(-31.58 95.42) rotate(-34.1)"/>
      <rect class="cls-2" x="152.55" y="171.49" width="75.34" height="4.01" rx="2" ry="2" transform="translate(-64.56 136.45) rotate(-34.1)"/>
      <polyline class="cls-2" points="159.56 191.82 143.38 168.23 142.61 164.69 139.87 163.05 139.1 159.5 136.33 157.83 135.54 154.25 132.82 152.64 132.09 149.16 129.32 147.46 128.6 144.01 125.85 142.34 111.39 120.86"/>
      <polyline class="cls-2" points="170.05 80.47 184.62 101.88 185.14 105.05 188.09 107 188.63 110.2 191.59 112.18 192.08 115.3 195.11 117.36 195.63 120.55 198.63 122.59 199.14 125.74 202.15 127.77 218.04 151.56"/>
      <line class="cls-2" x1="185.14" y1="105.05" x2="128.6" y2="144.01"/>
      <line class="cls-2" x1="188.63" y1="110.2" x2="132.09" y2="149.16"/>
      <line class="cls-2" x1="192.08" y1="115.3" x2="135.54" y2="154.25"/>
      <line class="cls-2" x1="195.63" y1="120.55" x2="139.1" y2="159.5"/>
      <line class="cls-2" x1="199.14" y1="125.74" x2="142.61" y2="164.69"/>
    </g>
  </g>
  <g>
    <polygon class="cls-1" points="452.61 64.74 436.06 84.66 435.23 87.77 432.12 89.43 431.45 92.35 428.13 94.24 427.53 97.09 424.14 99.07 423.67 101.76 420.13 103.93 419.5 106.8 416.13 108.76 398.04 130.91 395.97 130.63 394.77 132.6 450.46 179.45 453.28 179.18 453.12 175.72 472.03 152.06 475.47 148.96 476.4 145.72 479.49 144.11 480.62 140.62 483.48 139.28 484.54 135.88 487.46 134.46 488.33 131.3 491.41 129.69 506.57 110.3 510.4 109.92 510.14 107.1 455.16 61.65 452.34 61.92 452.61 64.74"/>
    <g>
      <rect class="cls-2" x="443.7" y="83.92" width="75.34" height="4.01" rx="2" ry="2" transform="translate(165.13 -287.03) rotate(39.58)"/>
      <rect class="cls-2" x="386.58" y="153.18" width="75.34" height="4.01" rx="2" ry="2" transform="translate(196.16 -234.75) rotate(39.58)"/>
      <polyline class="cls-2" points="398.04 130.91 416.13 108.76 419.32 107.02 420.13 103.93 423.31 102.19 424.14 99.07 427.35 97.3 428.13 94.24 431.27 92.56 432.12 89.43 435.23 87.77 436.06 84.66 452.61 64.74"/>
      <polyline class="cls-2" points="507.86 109.69 491.41 129.69 488.51 131.08 487.46 134.46 484.54 135.88 483.48 139.28 480.62 140.62 479.49 144.11 476.58 145.5 475.47 148.96 472.59 150.33 471.48 153.79 453.12 175.72"/>
      <line class="cls-2" x1="488.51" y1="131.08" x2="435.23" y2="87.77"/>
      <line class="cls-2" x1="484.54" y1="135.88" x2="431.27" y2="92.56"/>
      <line class="cls-2" x1="480.62" y1="140.62" x2="427.35" y2="97.3"/>
      <line class="cls-2" x1="476.58" y1="145.5" x2="423.31" y2="102.19"/>
      <line class="cls-2" x1="472.59" y1="150.33" x2="419.32" y2="107.02"/>
    </g>
  </g>
  <path class="cls-2" d="M194.04,173.49s98.77,27.47,75.57,63.92-48.41-39.44-24.2-61.69,77.21,3.15,62.86,92.61,50.8,60.74,54.11,40.86-.24-97.78,8.68-114.54c12.89-24.23,53.19-37.24,53.19-37.24"/>
  <line class="cls-2" x1="497" y1="68.12" x2="515.58" y2="47.3"/>
  <line class="cls-2" x1="483.95" y1="65.34" x2="486.72" y2="37.57"/>
  <line class="cls-2" x1="503.86" y1="80.37" x2="531.77" y2="80.47"/>
  <line class="cls-2" x1="128.54" y1="81.49" x2="116.15" y2="56.48"/>
  <line class="cls-2" x1="121.1" y1="92.56" x2="96.36" y2="79.64"/>
  <line class="cls-2" x1="142.46" y1="79.68" x2="152.96" y2="53.82"/>
</svg>