<?xml version="1.0" encoding="UTF-8"?>
<svg id="Layer_2" data-name="Layer 2" xmlns="http://www.w3.org/2000/svg" viewBox="0 0 140.59 187.16">
  <defs>
    <style>
      .cls-1 {
        fill: none;
        stroke: #000;
        stroke-miterlimit: 10;
        stroke-width: 3px;
      }
    </style>
  </defs>
  <rect class="cls-1" x="32.57" y="54.03" width="75.34" height="4.01" rx="2" ry="2"/>
  <rect class="cls-1" x="32.68" y="143.81" width="75.34" height="4.01" rx="2" ry="2"/>
  <polyline class="cls-1" points="34.57 58.04 34.51 83.93 35.86 86.85 34.51 90.12 35.86 93.08 34.51 96.37 35.86 99.23 34.5 102.64 35.86 105.57 34.51 108.94 35.86 111.83 34.51 115.2 34.68 143.81"/>
  <polyline class="cls-1" points="105.79 57.47 105.86 83.37 104.51 86.29 105.86 89.56 104.51 92.51 105.86 95.81 104.51 98.66 105.86 102.07 104.51 105.01 105.86 108.37 104.51 111.27 105.86 114.64 105.69 143.24"/>
  <line class="cls-1" x1="35.86" y1="86.85" x2="104.51" y2="86.29"/>
  <line class="cls-1" x1="104.51" y1="92.51" x2="35.86" y2="93.08"/>
  <line class="cls-1" x1="104.51" y1="98.66" x2="35.86" y2="99.23"/>
  <line class="cls-1" x1="104.51" y1="105.01" x2="35.86" y2="105.57"/>
  <line class="cls-1" x1="35.86" y1="111.83" x2="104.51" y2="111.27"/>
</svg>