<?xml version="1.0" encoding="UTF-8"?>
<svg id="Layer_2" data-name="Layer 2" xmlns="http://www.w3.org/2000/svg" viewBox="0 0 144 144">
  <defs>
    <style>
      .cls-1 {
        stroke: #000;
        stroke-miterlimit: 10;
        stroke-width: .25px;
      }
    </style>
  </defs>
  <path class="cls-1" d="M122.72,12.84H21.12c-2.75,0-4.99-2.24-4.99-4.99s2.24-4.99,4.99-4.99h101.59c2.75,0,4.99,2.24,4.99,4.99s-2.24,4.99-4.99,4.99ZM21.12,7.13c-.39,0-.72.33-.72.72s.33.72.72.72h101.59c.39,0,.72-.33.72-.72s-.33-.72-.72-.72H21.12Z"/>
  <path class="cls-1" d="M122.88,140.71H21.28c-2.75,0-4.99-2.24-4.99-4.99s2.24-4.99,4.99-4.99h101.6c2.75,0,4.99,2.24,4.99,4.99s-2.24,4.99-4.99,4.99ZM21.28,135c-.39,0-.72.33-.72.72s.33.72.72.72h101.6c.39,0,.72-.33.72-.72s-.33-.72-.72-.72H21.28Z"/>
  <polygon class="cls-1" points="19.14 132.87 18.89 91.71 20.63 87.38 18.71 83.26 20.63 78.46 18.7 74.29 20.62 69.44 18.7 65.37 20.63 60.65 18.71 56.44 20.62 51.8 18.89 48.05 18.99 10.7 23.26 10.71 23.17 47.12 25.28 51.7 23.36 56.36 25.28 60.56 23.37 65.24 25.28 69.29 23.35 74.16 25.28 78.34 23.36 83.13 25.28 87.26 23.17 92.53 23.42 132.85 19.14 132.87"/>
  <polygon class="cls-1" points="124.54 132.07 120.27 132.05 120.52 91.72 118.41 86.46 120.33 82.33 118.41 77.54 120.34 73.36 118.41 68.49 120.32 64.44 118.41 59.76 120.33 55.55 118.41 50.9 120.52 46.32 120.43 9.91 124.7 9.9 124.79 47.25 123.07 50.99 124.98 55.64 123.06 59.85 124.99 64.56 123.06 68.64 124.99 73.49 123.06 77.66 124.98 82.46 123.06 86.58 124.8 90.91 124.54 132.07"/>
  <rect class="cls-1" x="22.95" y="49.21" width="97.79" height="4.27" transform="translate(-.43 .61) rotate(-.48)"/>
  <rect class="cls-1" x="22.95" y="58.07" width="97.79" height="4.27" transform="translate(-.51 .61) rotate(-.48)"/>
  <rect class="cls-1" x="22.95" y="66.83" width="97.79" height="4.27" transform="translate(-.58 .61) rotate(-.48)"/>
  <rect class="cls-1" x="22.95" y="75.87" width="97.79" height="4.27" transform="translate(-.66 .61) rotate(-.48)"/>
  <rect class="cls-1" x="22.95" y="84.78" width="97.79" height="4.27" transform="translate(-.73 .61) rotate(-.48)"/>
</svg>